<?xml version="1.0" encoding="utf-8"?>
<!-- Generator: Adobe Illustrator 16.0.0, SVG Export Plug-In . SVG Version: 6.00 Build 0)  -->
<!DOCTYPE svg PUBLIC "-//W3C//DTD SVG 1.1//EN" "http://www.w3.org/Graphics/SVG/1.1/DTD/svg11.dtd">
<svg version="1.1" id="Layer_1" xmlns="http://www.w3.org/2000/svg" xmlns:xlink="http://www.w3.org/1999/xlink" x="0px" y="0px"
	 width="128.308px" height="35px" viewBox="1.415 0 128.308 35" enable-background="new 1.415 0 128.308 35" xml:space="preserve">
<g id="Layer_1_1_">
</g>
<g id="Layer_2" display="none">
</g>
<g id="Layer_4">
</g>
<g id="Layer_3">
	<g>
		<g>
			<path fill="#2098A1" d="M21.413,15.695l9.065,2.25c1.579-0.618,2.525-1.401,2.525-2.25c0-0.771,0-2.85,0-3.62
				c0-1.998-5.189-3.619-11.59-3.619c-6.4,0-11.588,1.621-11.588,3.619c0,0.77,0,2.85,0,3.62c0,1.996,5.188,3.615,11.588,3.615
				V15.695z"/>
			<g>
				<path fill="#2098A1" d="M30.478,21.564l-9.065-2.254v3.616l9.065,2.255c1.579-0.618,2.525-1.399,2.525-2.255
					c0-0.766,0-2.849,0-3.616C33.004,20.163,32.057,20.945,30.478,21.564z"/>
				<path fill="#2098A1" d="M9.824,19.31c0,0.767,0,2.851,0,3.616c0,2,5.188,3.619,11.588,3.619v-3.619
					C15.012,22.926,9.824,21.307,9.824,19.31z"/>
			</g>
			<path fill="#2098A1" d="M21.413,35L1.415,28.314V6.686L21.413,0l19.999,6.686v21.627L21.413,35z M3.394,26.889l18.019,6.026
				l18.021-6.026V8.114L21.413,2.085L3.394,8.114V26.889z"/>
		</g>
		<g>
			<path fill="#414042" d="M53.519,23.977c-3.723,0-6.488-2.87-6.488-6.504v-0.036c0-3.597,2.711-6.542,6.596-6.542
				c2.386,0,3.813,0.795,4.989,1.951l-1.771,2.042c-0.976-0.886-1.971-1.426-3.237-1.426c-2.129,0-3.667,1.769-3.667,3.937v0.037
				c0,2.167,1.499,3.977,3.667,3.977c1.448,0,2.332-0.579,3.326-1.483l1.771,1.79C57.405,23.112,55.959,23.977,53.519,23.977z"/>
			<path fill="#414042" d="M66.32,23.76v-1.046c-0.668,0.738-1.59,1.229-2.925,1.229c-1.825,0-3.326-1.051-3.326-2.964v-0.036
				c0-2.114,1.61-3.09,3.903-3.09c0.976,0,1.681,0.162,2.366,0.397v-0.163c0-1.14-0.703-1.772-2.078-1.772
				c-1.048,0-1.788,0.2-2.674,0.524l-0.688-2.095c1.068-0.471,2.114-0.778,3.759-0.778c3,0,4.32,1.554,4.32,4.175v5.618L66.32,23.76
				L66.32,23.76z M66.376,19.857c-0.47-0.216-1.084-0.361-1.752-0.361c-1.174,0-1.899,0.469-1.899,1.338v0.036
				c0,0.74,0.616,1.173,1.502,1.173c1.282,0,2.15-0.704,2.15-1.699L66.376,19.857L66.376,19.857z"/>
			<path fill="#414042" d="M77.584,23.76l-2.529-3.958l-0.957,1.013v2.944h-2.747V10.569h2.747v7.03l3.216-3.524h3.287l-3.685,3.811
				l3.812,5.873L77.584,23.76L77.584,23.76z"/>
			<path fill="#414042" d="M90.598,19.877h-6.739c0.271,1.246,1.138,1.896,2.368,1.896c0.921,0,1.589-0.29,2.348-0.995l1.572,1.39
				c-0.903,1.121-2.203,1.808-3.958,1.808c-2.907,0-5.058-2.04-5.058-5.005v-0.036c0-2.766,1.968-5.042,4.786-5.042
				c3.236,0,4.718,2.51,4.718,5.258v0.038C90.634,19.46,90.615,19.625,90.598,19.877z M85.916,16.1
				c-1.137,0-1.878,0.813-2.095,2.059h4.14C87.797,16.931,87.074,16.1,85.916,16.1z"/>
			<path fill="#2098A1" d="M95.753,13.641v2.695h6.037v2.529h-6.037v4.896h-2.781V11.113h9.632v2.529L95.753,13.641L95.753,13.641z"
				/>
			<path fill="#2098A1" d="M113.269,19.877h-6.738c0.269,1.246,1.135,1.896,2.363,1.896c0.924,0,1.593-0.29,2.35-0.995l1.575,1.39
				c-0.906,1.121-2.204,1.808-3.959,1.808c-2.909,0-5.061-2.04-5.061-5.005v-0.036c0-2.766,1.972-5.042,4.79-5.042
				c3.234,0,4.717,2.51,4.717,5.258v0.038C113.306,19.46,113.286,19.625,113.269,19.877z M108.588,16.1
				c-1.139,0-1.879,0.813-2.097,2.059h4.139C110.467,16.931,109.744,16.1,108.588,16.1z"/>
			<path fill="#2098A1" d="M118.75,23.943c-1.356,0-2.873-0.453-4.155-1.466l1.175-1.805c1.047,0.758,2.149,1.156,3.052,1.156
				c0.795,0,1.157-0.29,1.157-0.721V21.07c0-0.597-0.938-0.797-2.005-1.122c-1.354-0.397-2.891-1.031-2.891-2.908v-0.036
				c0-1.971,1.589-3.072,3.542-3.072c1.229,0,2.566,0.416,3.614,1.119l-1.048,1.898c-0.958-0.558-1.917-0.904-2.621-0.904
				c-0.669,0-1.011,0.292-1.011,0.667v0.038c0,0.541,0.921,0.795,1.969,1.156c1.356,0.452,2.927,1.102,2.927,2.874v0.036
				C122.453,22.966,120.847,23.943,118.75,23.943z"/>
			<path fill="#2098A1" d="M127.518,23.923c-1.678,0-2.818-0.666-2.818-2.909v-4.589h-1.156v-2.35h1.156V11.6h2.746v2.476h2.277
				v2.35h-2.277v4.138c0,0.633,0.271,0.94,0.885,0.94c0.506,0,0.959-0.127,1.357-0.346v2.205
				C129.108,23.709,128.441,23.923,127.518,23.923z"/>
		</g>
	</g>
</g>
</svg>
